<svg width="8" height="9" viewBox="0 0 8 9" fill="none" xmlns="http://www.w3.org/2000/svg">
<path d="M4.15866 3.96999L1.45702 0.219741C1.24596 -0.073247 0.904033 -0.073247 0.692967 0.219741C0.481902 0.512729 0.481902 0.987369 0.692967 1.28036L3.01384 4.49971L0.693811 7.72023C0.482746 8.01322 0.482746 8.48786 0.693811 8.78084C0.799007 8.92734 0.937128 9 1.07542 9C1.21371 9 1.352 8.92675 1.45736 8.78026L4.159 5.03001C4.36973 4.73644 4.36973 4.26297 4.15866 3.96999ZM7.40063 3.96999L4.69899 0.219741C4.48793 -0.073247 4.146 -0.073247 3.93493 0.219741C3.72387 0.512729 3.72387 0.987369 3.93493 1.28036L6.25581 4.49971L3.93578 7.72023C3.72471 8.01322 3.72471 8.48786 3.93578 8.78084C4.04047 8.92734 4.17893 9 4.31739 9C4.45584 9 4.59397 8.92675 4.69933 8.78026L7.40097 5.03001C7.6117 4.73644 7.6117 4.26297 7.40063 3.96999Z" fill="white"/>
</svg>
