<svg width="220" height="179" viewBox="0 0 220 179" fill="none" xmlns="http://www.w3.org/2000/svg">
<path d="M54.3143 178.12C43.989 178.12 35.541 176.008 28.9703 171.784C22.3997 167.56 17.0023 162.163 12.7783 155.592C8.085 147.613 4.79967 139.4 2.92233 130.952C1.51433 122.035 0.810334 114.76 0.810334 109.128C0.810334 86.1306 6.677 65.2453 18.4103 46.472C30.1437 27.6987 48.4477 12.4453 73.3223 0.711956L79.6583 13.384C65.109 19.4853 52.437 29.1066 41.6423 42.248C31.317 55.3893 26.1543 68.7653 26.1543 82.376C26.1543 88.008 26.8583 92.936 28.2663 97.16C35.7757 91.0586 44.4583 88.008 54.3143 88.008C66.517 88.008 77.077 91.9973 85.9943 99.976C94.9117 107.955 99.3703 118.984 99.3703 133.064C99.3703 146.205 94.9117 157 85.9943 165.448C77.077 173.896 66.517 178.12 54.3143 178.12ZM173.994 178.12C163.669 178.12 155.221 176.008 148.65 171.784C142.08 167.56 136.682 162.163 132.458 155.592C127.765 147.613 124.48 139.4 122.602 130.952C121.194 122.035 120.49 114.76 120.49 109.128C120.49 86.1306 126.357 65.2453 138.09 46.472C149.824 27.6987 168.128 12.4453 193.002 0.711956L199.338 13.384C184.789 19.4853 172.117 29.1066 161.322 42.248C150.997 55.3893 145.834 68.7653 145.834 82.376C145.834 88.008 146.538 92.936 147.946 97.16C155.456 91.0586 164.138 88.008 173.994 88.008C186.197 88.008 196.757 91.9973 205.674 99.976C214.592 107.955 219.05 118.984 219.05 133.064C219.05 146.205 214.592 157 205.674 165.448C196.757 173.896 186.197 178.12 173.994 178.12Z" fill="#E1F4F2" fill-opacity="0.6"/>
</svg>
